<svg width="84" height="29" viewBox="0 0 84 29" fill="none" xmlns="http://www.w3.org/2000/svg">
<path fill-rule="evenodd" clip-rule="evenodd" d="M18.5095 14.5607C18.5095 12.1036 16.5176 10.1117 14.0605 10.1117C11.6034 10.1117 9.61151 12.1036 9.61151 14.5607C9.61151 17.0178 11.6034 19.0097 14.0605 19.0097C16.5176 19.0097 18.5095 17.0178 18.5095 14.5607Z" fill="url(#paint0_linear_5384_4225)"/>
<path d="M28 14.5C28 22.232 21.732 28.5 14 28.5C10.8225 28.5 7.89224 27.4414 5.54265 25.6577L10.1059 21.0945C11.2594 21.7941 12.613 22.197 14.0606 22.197C18.2781 22.197 21.697 18.7781 21.697 14.5606C21.697 10.3432 18.2781 6.92424 14.0606 6.92424C9.84316 6.92424 6.42424 10.3432 6.42424 14.5606C6.42424 16.1013 6.88052 17.5355 7.66533 18.7353L3.10628 23.2943C1.16349 20.8908 0 17.8313 0 14.5C0 6.76801 6.26801 0.5 14 0.5C21.732 0.5 28 6.76801 28 14.5Z" fill="url(#paint1_linear_5384_4225)"/>
<path d="M14.0606 16.5C13.5447 15.5099 12.8627 14.8225 12 14.5C12.4698 14.3273 12.8964 14.0597 13.2517 13.7149C13.6069 13.3701 13.8827 12.956 14.0606 12.5C14.229 12.9612 14.5014 13.3801 14.8579 13.7261C15.2144 14.0721 15.646 14.3365 16.1212 14.5C15.2325 14.9367 14.5106 15.6374 14.0606 16.5Z" fill="white"/>
<path d="M36.1797 9.00781H42.5312V11.1641H40.4375V20.5H38.2188V11.1641H36.1797V9.00781ZM49.2781 12H51.4031V20.5H49.2781V19.6016C48.8615 19.9974 48.4422 20.2839 48.0203 20.4609C47.6036 20.6328 47.1505 20.7188 46.6609 20.7188C45.562 20.7188 44.6115 20.2943 43.8094 19.4453C43.0073 18.5911 42.6062 17.5312 42.6062 16.2656C42.6062 14.9531 42.9943 13.8776 43.7703 13.0391C44.5464 12.2005 45.4891 11.7812 46.5984 11.7812C47.1089 11.7812 47.588 11.8776 48.0359 12.0703C48.4839 12.263 48.8979 12.5521 49.2781 12.9375V12ZM47.0359 13.75C46.3745 13.75 45.825 13.9844 45.3875 14.4531C44.95 14.9167 44.7312 15.513 44.7312 16.2422C44.7312 16.9766 44.9526 17.5807 45.3953 18.0547C45.8432 18.5286 46.3927 18.7656 47.0437 18.7656C47.7156 18.7656 48.2729 18.5339 48.7156 18.0703C49.1583 17.6016 49.3797 16.9896 49.3797 16.2344C49.3797 15.4948 49.1583 14.8958 48.7156 14.4375C48.2729 13.9792 47.713 13.75 47.0359 13.75ZM52.5328 8.71875H54.6656V20.5H52.5328V8.71875ZM64.3188 16.8672H57.4672C57.5661 17.4714 57.8292 17.9531 58.2563 18.3125C58.6885 18.6667 59.238 18.8438 59.9047 18.8438C60.7016 18.8438 61.3865 18.5651 61.9594 18.0078L63.7563 18.8516C63.3083 19.487 62.7719 19.9583 62.1469 20.2656C61.5219 20.5677 60.7797 20.7188 59.9203 20.7188C58.587 20.7188 57.501 20.2995 56.6625 19.4609C55.824 18.6172 55.4047 17.5625 55.4047 16.2969C55.4047 15 55.8214 13.9245 56.6547 13.0703C57.4932 12.2109 58.5427 11.7812 59.8031 11.7812C61.1417 11.7812 62.2302 12.2109 63.0688 13.0703C63.9073 13.9245 64.3266 15.0547 64.3266 16.4609L64.3188 16.8672ZM62.1781 15.1875C62.0375 14.7135 61.7589 14.3281 61.3422 14.0312C60.9307 13.7344 60.4516 13.5859 59.9047 13.5859C59.3109 13.5859 58.7901 13.7526 58.3422 14.0859C58.0609 14.2943 57.8005 14.6615 57.5609 15.1875H62.1781ZM65.2531 12H67.3781V12.8672C67.8625 12.4609 68.3 12.1797 68.6906 12.0234C69.0865 11.862 69.4901 11.7812 69.9016 11.7812C70.7453 11.7812 71.4615 12.0755 72.05 12.6641C72.5448 13.1641 72.7922 13.9036 72.7922 14.8828V20.5H70.6828V16.7734C70.6828 15.7578 70.6359 15.0833 70.5422 14.75C70.4536 14.4167 70.2948 14.1641 70.0656 13.9922C69.8417 13.8151 69.563 13.7266 69.2297 13.7266C68.7974 13.7266 68.425 13.8724 68.1125 14.1641C67.8052 14.4505 67.5917 14.849 67.4719 15.3594C67.4094 15.625 67.3781 16.2005 67.3781 17.0859V20.5H65.2531V12ZM80.3438 12H82.4688V20.5H80.3438V19.6016C79.9271 19.9974 79.5078 20.2839 79.0859 20.4609C78.6693 20.6328 78.2161 20.7188 77.7266 20.7188C76.6276 20.7188 75.6771 20.2943 74.875 19.4453C74.0729 18.5911 73.6719 17.5312 73.6719 16.2656C73.6719 14.9531 74.0599 13.8776 74.8359 13.0391C75.612 12.2005 76.5547 11.7812 77.6641 11.7812C78.1745 11.7812 78.6536 11.8776 79.1016 12.0703C79.5495 12.263 79.9635 12.5521 80.3438 12.9375V12ZM78.1016 13.75C77.4401 13.75 76.8906 13.9844 76.4531 14.4531C76.0156 14.9167 75.7969 15.513 75.7969 16.2422C75.7969 16.9766 76.0182 17.5807 76.4609 18.0547C76.9089 18.5286 77.4583 18.7656 78.1094 18.7656C78.7812 18.7656 79.3385 18.5339 79.7812 18.0703C80.224 17.6016 80.4453 16.9896 80.4453 16.2344C80.4453 15.4948 80.224 14.8958 79.7812 14.4375C79.3385 13.9792 78.7786 13.75 78.1016 13.75Z" fill="#111827"/>
<defs>
<linearGradient id="paint0_linear_5384_4225" x1="14" y1="0.5" x2="14" y2="28.5" gradientUnits="userSpaceOnUse">
<stop stop-color="#6366F1"/>
<stop offset="1" stop-color="#A79FDB"/>
</linearGradient>
<linearGradient id="paint1_linear_5384_4225" x1="14" y1="0.5" x2="14" y2="28.5" gradientUnits="userSpaceOnUse">
<stop stop-color="#6366F1"/>
<stop offset="1" stop-color="#A79FDB"/>
</linearGradient>
</defs>
</svg>
