<svg width="131" height="40" viewBox="0 0 131 40" fill="none" xmlns="http://www.w3.org/2000/svg">
<path fill-rule="evenodd" clip-rule="evenodd" d="M26.4422 20.0867C26.4422 16.5765 23.5966 13.731 20.0865 13.731C16.5763 13.731 13.7307 16.5765 13.7307 20.0867C13.7307 23.5969 16.5763 26.4424 20.0865 26.4424C23.5966 26.4424 26.4422 23.5969 26.4422 20.0867Z" fill="url(#paint0_linear_7663_27099)"/>
<path d="M40 20C40 31.0457 31.0457 40 20 40C15.4607 40 11.2746 38.4878 7.91807 35.9396L14.437 29.4207C16.0849 30.4202 18.0185 30.9957 20.0866 30.9957C26.1115 30.9957 30.9957 26.1115 30.9957 20.0866C30.9957 14.0617 26.1115 9.17749 20.0866 9.17749C14.0617 9.17749 9.17749 14.0617 9.17749 20.0866C9.17749 22.2876 9.82932 24.3364 10.9505 26.0504L4.43755 32.5633C1.66213 29.1297 0 24.7589 0 20C0 8.95431 8.95431 0 20 0C31.0457 0 40 8.95431 40 20Z" fill="url(#paint1_linear_7663_27099)"/>
<path d="M20.0868 22.8569C19.3498 21.4424 18.3755 20.4604 17.1431 19.9997C17.8142 19.753 18.4237 19.3707 18.9312 18.8781C19.4387 18.3856 19.8326 17.794 20.0868 17.1426C20.3274 17.8015 20.7166 18.3999 21.2258 18.8942C21.7351 19.3885 22.3517 19.7662 23.0305 19.9997C21.7609 20.6236 20.7296 21.6246 20.0868 22.8569Z" fill="white"/>
<path d="M57.8295 6.45455C57.7784 6.02273 57.571 5.6875 57.2074 5.44886C56.8438 5.21023 56.3977 5.09091 55.8693 5.09091C55.483 5.09091 55.1449 5.15341 54.8551 5.27841C54.5682 5.40341 54.3438 5.57528 54.1818 5.79403C54.0227 6.01278 53.9432 6.26136 53.9432 6.53977C53.9432 6.77273 53.9986 6.97301 54.1094 7.14062C54.223 7.3054 54.3679 7.44318 54.544 7.55398C54.7202 7.66193 54.9048 7.75142 55.098 7.82244C55.2912 7.89062 55.4688 7.94602 55.6307 7.98864L56.517 8.22727C56.7443 8.28693 56.9972 8.36932 57.2756 8.47443C57.5568 8.57955 57.8253 8.72301 58.081 8.90483C58.3395 9.08381 58.5526 9.31392 58.7202 9.59517C58.8878 9.87642 58.9716 10.2216 58.9716 10.6307C58.9716 11.1023 58.848 11.5284 58.6009 11.9091C58.3565 12.2898 57.9986 12.5923 57.527 12.8168C57.0582 13.0412 56.4886 13.1534 55.8182 13.1534C55.1932 13.1534 54.652 13.0526 54.1946 12.8509C53.7401 12.6491 53.3821 12.3679 53.1207 12.0071C52.8622 11.6463 52.7159 11.2273 52.6818 10.75H53.7727C53.8011 11.0795 53.9119 11.3523 54.1051 11.5682C54.3011 11.7812 54.5483 11.9403 54.8466 12.0455C55.1477 12.1477 55.4716 12.1989 55.8182 12.1989C56.2216 12.1989 56.5838 12.1335 56.9048 12.0028C57.2259 11.8693 57.4801 11.6847 57.6676 11.4489C57.8551 11.2102 57.9489 10.9318 57.9489 10.6136C57.9489 10.3239 57.8679 10.0881 57.706 9.90625C57.544 9.72443 57.331 9.5767 57.0668 9.46307C56.8026 9.34943 56.517 9.25 56.2102 9.16477L55.1364 8.85795C54.4545 8.66193 53.9148 8.3821 53.517 8.01847C53.1193 7.65483 52.9205 7.17898 52.9205 6.59091C52.9205 6.10227 53.0526 5.67614 53.3168 5.3125C53.5838 4.94602 53.9418 4.66193 54.3906 4.46023C54.8423 4.25568 55.3466 4.15341 55.9034 4.15341C56.4659 4.15341 56.9659 4.25426 57.4034 4.45597C57.8409 4.65483 58.1875 4.92756 58.4432 5.27415C58.7017 5.62074 58.8381 6.0142 58.8523 6.45455H57.8295ZM60.5728 15.4545V6.45455H61.5444V7.49432H61.6637C61.7376 7.38068 61.8398 7.2358 61.9705 7.05966C62.104 6.88068 62.2944 6.72159 62.5415 6.58239C62.7915 6.44034 63.1296 6.36932 63.5558 6.36932C64.1069 6.36932 64.5927 6.5071 65.0131 6.78267C65.4336 7.05824 65.7617 7.44886 65.9975 7.95455C66.2333 8.46023 66.3512 9.05682 66.3512 9.74432C66.3512 10.4375 66.2333 11.0384 65.9975 11.5469C65.7617 12.0526 65.435 12.4446 65.0174 12.723C64.5998 12.9986 64.1183 13.1364 63.5728 13.1364C63.1523 13.1364 62.8157 13.0668 62.5629 12.9276C62.31 12.7855 62.1154 12.625 61.979 12.446C61.8427 12.2642 61.7376 12.1136 61.6637 11.9943H61.5785V15.4545H60.5728ZM61.5614 9.72727C61.5614 10.2216 61.6339 10.6577 61.7788 11.0355C61.9237 11.4105 62.1353 11.7045 62.4137 11.9176C62.6921 12.1278 63.033 12.233 63.4364 12.233C63.8569 12.233 64.2077 12.1222 64.489 11.9006C64.7731 11.6761 64.9862 11.375 65.1282 10.9972C65.2731 10.6165 65.3455 10.1932 65.3455 9.72727C65.3455 9.26705 65.2745 8.85227 65.1325 8.48295C64.9933 8.1108 64.7816 7.81676 64.4975 7.60085C64.2163 7.3821 63.8626 7.27273 63.4364 7.27273C63.0273 7.27273 62.6836 7.37642 62.4052 7.58381C62.1268 7.78835 61.9165 8.07528 61.7745 8.4446C61.6325 8.81108 61.5614 9.23864 61.5614 9.72727ZM70.5444 13.1364C69.9535 13.1364 69.435 12.9957 68.989 12.7145C68.5458 12.4332 68.1992 12.0398 67.9492 11.5341C67.7021 11.0284 67.5785 10.4375 67.5785 9.76136C67.5785 9.07955 67.7021 8.48437 67.9492 7.97585C68.1992 7.46733 68.5458 7.07244 68.989 6.79119C69.435 6.50994 69.9535 6.36932 70.5444 6.36932C71.1353 6.36932 71.6523 6.50994 72.0955 6.79119C72.5415 7.07244 72.8881 7.46733 73.1353 7.97585C73.3853 8.48437 73.5103 9.07955 73.5103 9.76136C73.5103 10.4375 73.3853 11.0284 73.1353 11.5341C72.8881 12.0398 72.5415 12.4332 72.0955 12.7145C71.6523 12.9957 71.1353 13.1364 70.5444 13.1364ZM70.5444 12.233C70.9933 12.233 71.3626 12.1179 71.6523 11.8878C71.9421 11.6577 72.1566 11.3551 72.2958 10.9801C72.435 10.6051 72.5046 10.1989 72.5046 9.76136C72.5046 9.32386 72.435 8.91619 72.2958 8.53835C72.1566 8.16051 71.9421 7.85511 71.6523 7.62216C71.3626 7.3892 70.9933 7.27273 70.5444 7.27273C70.0955 7.27273 69.7262 7.3892 69.4364 7.62216C69.1467 7.85511 68.9322 8.16051 68.793 8.53835C68.6538 8.91619 68.5842 9.32386 68.5842 9.76136C68.5842 10.1989 68.6538 10.6051 68.793 10.9801C68.9322 11.3551 69.1467 11.6577 69.4364 11.8878C69.7262 12.1179 70.0955 12.233 70.5444 12.233ZM76.0511 9.0625V13H75.0455V6.45455H76.017V7.47727H76.1023C76.2557 7.14489 76.4886 6.87784 76.8011 6.67614C77.1136 6.47159 77.517 6.36932 78.0114 6.36932C78.4545 6.36932 78.8423 6.46023 79.1747 6.64205C79.5071 6.82102 79.7656 7.09375 79.9503 7.46023C80.1349 7.82386 80.2273 8.28409 80.2273 8.84091V13H79.2216V8.90909C79.2216 8.39489 79.0881 7.99432 78.821 7.70739C78.554 7.41761 78.1875 7.27273 77.7216 7.27273C77.4006 7.27273 77.1136 7.34233 76.8608 7.48153C76.6108 7.62074 76.4134 7.82386 76.2685 8.09091C76.1236 8.35795 76.0511 8.68182 76.0511 9.0625ZM86.7013 7.92045L85.7979 8.17614C85.7411 8.02557 85.6573 7.87926 85.5465 7.73722C85.4386 7.59233 85.2908 7.47301 85.1033 7.37926C84.9158 7.28551 84.6758 7.23864 84.3832 7.23864C83.9826 7.23864 83.6488 7.33097 83.3817 7.51562C83.1175 7.69744 82.9854 7.92898 82.9854 8.21023C82.9854 8.46023 83.0763 8.65767 83.2582 8.80256C83.44 8.94744 83.7241 9.06818 84.1104 9.16477L85.082 9.40341C85.6673 9.54545 86.1033 9.76278 86.3903 10.0554C86.6772 10.3452 86.8207 10.7187 86.8207 11.1761C86.8207 11.5511 86.7127 11.8864 86.4968 12.1818C86.2837 12.4773 85.9854 12.7102 85.6019 12.8807C85.2184 13.0511 84.7724 13.1364 84.2638 13.1364C83.5962 13.1364 83.0437 12.9915 82.6062 12.7017C82.1687 12.4119 81.8917 11.9886 81.7752 11.4318L82.7298 11.1932C82.8207 11.5455 82.9925 11.8097 83.2454 11.9858C83.5011 12.1619 83.8349 12.25 84.2468 12.25C84.7156 12.25 85.0877 12.1506 85.3633 11.9517C85.6417 11.75 85.7809 11.5085 85.7809 11.2273C85.7809 11 85.7013 10.8097 85.5423 10.6562C85.3832 10.5 85.1388 10.3835 84.8093 10.3068L83.7184 10.0511C83.119 9.90909 82.6786 9.68892 82.3974 9.39062C82.119 9.08949 81.9798 8.71307 81.9798 8.26136C81.9798 7.89205 82.0835 7.56534 82.2908 7.28125C82.5011 6.99716 82.7866 6.77415 83.1474 6.61222C83.511 6.45028 83.9229 6.36932 84.3832 6.36932C85.0309 6.36932 85.5394 6.51136 85.9087 6.79545C86.2809 7.07955 86.5451 7.45455 86.7013 7.92045ZM90.9936 13.1364C90.4027 13.1364 89.8842 12.9957 89.4382 12.7145C88.995 12.4332 88.6484 12.0398 88.3984 11.5341C88.1513 11.0284 88.0277 10.4375 88.0277 9.76136C88.0277 9.07955 88.1513 8.48437 88.3984 7.97585C88.6484 7.46733 88.995 7.07244 89.4382 6.79119C89.8842 6.50994 90.4027 6.36932 90.9936 6.36932C91.5845 6.36932 92.1016 6.50994 92.5447 6.79119C92.9908 7.07244 93.3374 7.46733 93.5845 7.97585C93.8345 8.48437 93.9595 9.07955 93.9595 9.76136C93.9595 10.4375 93.8345 11.0284 93.5845 11.5341C93.3374 12.0398 92.9908 12.4332 92.5447 12.7145C92.1016 12.9957 91.5845 13.1364 90.9936 13.1364ZM90.9936 12.233C91.4425 12.233 91.8118 12.1179 92.1016 11.8878C92.3913 11.6577 92.6058 11.3551 92.745 10.9801C92.8842 10.6051 92.9538 10.1989 92.9538 9.76136C92.9538 9.32386 92.8842 8.91619 92.745 8.53835C92.6058 8.16051 92.3913 7.85511 92.1016 7.62216C91.8118 7.3892 91.4425 7.27273 90.9936 7.27273C90.5447 7.27273 90.1754 7.3892 89.8857 7.62216C89.5959 7.85511 89.3814 8.16051 89.2422 8.53835C89.103 8.91619 89.0334 9.32386 89.0334 9.76136C89.0334 10.1989 89.103 10.6051 89.2422 10.9801C89.3814 11.3551 89.5959 11.6577 89.8857 11.8878C90.1754 12.1179 90.5447 12.233 90.9936 12.233ZM95.4947 13V6.45455H96.4663V7.44318H96.5344C96.6538 7.11932 96.8697 6.85653 97.1822 6.65483C97.4947 6.45312 97.8469 6.35227 98.239 6.35227C98.3129 6.35227 98.4052 6.35369 98.516 6.35653C98.6268 6.35937 98.7106 6.36364 98.7674 6.36932V7.39205C98.7333 7.38352 98.6552 7.37074 98.533 7.35369C98.4137 7.33381 98.2873 7.32386 98.1538 7.32386C97.8356 7.32386 97.5515 7.39062 97.3015 7.52415C97.0543 7.65483 96.8583 7.83665 96.7134 8.0696C96.5714 8.29972 96.5004 8.5625 96.5004 8.85795V13H95.4947ZM102.505 13.1364C101.874 13.1364 101.33 12.9972 100.873 12.7188C100.418 12.4375 100.067 12.0455 99.82 11.5426C99.5756 11.0369 99.4535 10.4489 99.4535 9.77841C99.4535 9.10795 99.5756 8.51705 99.82 8.00568C100.067 7.49148 100.411 7.09091 100.851 6.80398C101.294 6.5142 101.811 6.36932 102.402 6.36932C102.743 6.36932 103.08 6.42614 103.412 6.53977C103.745 6.65341 104.047 6.83807 104.32 7.09375C104.593 7.34659 104.81 7.68182 104.972 8.09943C105.134 8.51705 105.215 9.03125 105.215 9.64205V10.0682H100.169V9.19886H104.192C104.192 8.82955 104.118 8.5 103.971 8.21023C103.826 7.92045 103.618 7.69176 103.348 7.52415C103.081 7.35653 102.766 7.27273 102.402 7.27273C102.002 7.27273 101.655 7.37216 101.363 7.57102C101.073 7.76705 100.85 8.02273 100.694 8.33807C100.537 8.65341 100.459 8.99148 100.459 9.35227V9.93182C100.459 10.4261 100.544 10.8452 100.715 11.1889C100.888 11.5298 101.128 11.7898 101.435 11.9688C101.742 12.1449 102.098 12.233 102.505 12.233C102.769 12.233 103.007 12.196 103.221 12.1222C103.436 12.0455 103.623 11.9318 103.779 11.7812C103.935 11.6278 104.056 11.4375 104.141 11.2102L105.113 11.483C105.01 11.8125 104.838 12.1023 104.597 12.3523C104.355 12.5994 104.057 12.7926 103.702 12.9318C103.347 13.0682 102.948 13.1364 102.505 13.1364ZM109.216 13.1364C108.671 13.1364 108.189 12.9986 107.772 12.723C107.354 12.4446 107.027 12.0526 106.792 11.5469C106.556 11.0384 106.438 10.4375 106.438 9.74432C106.438 9.05682 106.556 8.46023 106.792 7.95455C107.027 7.44886 107.355 7.05824 107.776 6.78267C108.196 6.5071 108.682 6.36932 109.233 6.36932C109.659 6.36932 109.996 6.44034 110.243 6.58239C110.493 6.72159 110.684 6.88068 110.814 7.05966C110.948 7.2358 111.051 7.38068 111.125 7.49432H111.211V4.27273H112.216V13H111.245V11.9943H111.125C111.051 12.1136 110.946 12.2642 110.81 12.446C110.674 12.625 110.479 12.7855 110.226 12.9276C109.973 13.0668 109.637 13.1364 109.216 13.1364ZM109.353 12.233C109.756 12.233 110.097 12.1278 110.375 11.9176C110.654 11.7045 110.865 11.4105 111.01 11.0355C111.155 10.6577 111.228 10.2216 111.228 9.72727C111.228 9.23864 111.157 8.81108 111.015 8.4446C110.873 8.07528 110.662 7.78835 110.384 7.58381C110.105 7.37642 109.762 7.27273 109.353 7.27273C108.926 7.27273 108.571 7.3821 108.287 7.60085C108.006 7.81676 107.794 8.1108 107.652 8.48295C107.513 8.85227 107.444 9.26705 107.444 9.72727C107.444 10.1932 107.515 10.6165 107.657 10.9972C107.801 11.375 108.015 11.6761 108.296 11.9006C108.58 12.1222 108.932 12.233 109.353 12.233ZM117.709 13V4.27273H118.715V7.49432H118.8C118.874 7.38068 118.976 7.2358 119.107 7.05966C119.24 6.88068 119.431 6.72159 119.678 6.58239C119.928 6.44034 120.266 6.36932 120.692 6.36932C121.243 6.36932 121.729 6.5071 122.15 6.78267C122.57 7.05824 122.898 7.44886 123.134 7.95455C123.37 8.46023 123.488 9.05682 123.488 9.74432C123.488 10.4375 123.37 11.0384 123.134 11.5469C122.898 12.0526 122.571 12.4446 122.154 12.723C121.736 12.9986 121.255 13.1364 120.709 13.1364C120.289 13.1364 119.952 13.0668 119.699 12.9276C119.446 12.7855 119.252 12.625 119.115 12.446C118.979 12.2642 118.874 12.1136 118.8 11.9943H118.681V13H117.709ZM118.698 9.72727C118.698 10.2216 118.77 10.6577 118.915 11.0355C119.06 11.4105 119.272 11.7045 119.55 11.9176C119.828 12.1278 120.169 12.233 120.573 12.233C120.993 12.233 121.344 12.1222 121.625 11.9006C121.909 11.6761 122.123 11.375 122.265 10.9972C122.409 10.6165 122.482 10.1932 122.482 9.72727C122.482 9.26705 122.411 8.85227 122.269 8.48295C122.13 8.1108 121.918 7.81676 121.634 7.60085C121.353 7.3821 120.999 7.27273 120.573 7.27273C120.164 7.27273 119.82 7.37642 119.542 7.58381C119.263 7.78835 119.053 8.07528 118.911 8.4446C118.769 8.81108 118.698 9.23864 118.698 9.72727ZM125.439 15.4545C125.269 15.4545 125.117 15.4403 124.983 15.4119C124.85 15.3864 124.757 15.3608 124.706 15.3352L124.962 14.4489C125.206 14.5114 125.422 14.5341 125.61 14.517C125.797 14.5 125.963 14.4162 126.108 14.2656C126.256 14.1179 126.391 13.8778 126.513 13.5455L126.701 13.0341L124.28 6.45455H125.371L127.178 11.6705H127.246L129.053 6.45455H130.144L127.365 13.9545C127.24 14.2926 127.086 14.5724 126.901 14.794C126.716 15.0185 126.502 15.1847 126.257 15.2926C126.016 15.4006 125.743 15.4545 125.439 15.4545Z" fill="#111827"/>
<path d="M52.1797 23.5078H58.5312V25.6641H56.4375V35H54.2188V25.6641H52.1797V23.5078ZM65.2781 26.5H67.4031V35H65.2781V34.1016C64.8615 34.4974 64.4422 34.7839 64.0203 34.9609C63.6036 35.1328 63.1505 35.2188 62.6609 35.2188C61.562 35.2188 60.6115 34.7943 59.8094 33.9453C59.0073 33.0911 58.6062 32.0312 58.6062 30.7656C58.6062 29.4531 58.9943 28.3776 59.7703 27.5391C60.5464 26.7005 61.4891 26.2812 62.5984 26.2812C63.1089 26.2812 63.588 26.3776 64.0359 26.5703C64.4839 26.763 64.8979 27.0521 65.2781 27.4375V26.5ZM63.0359 28.25C62.3745 28.25 61.825 28.4844 61.3875 28.9531C60.95 29.4167 60.7312 30.013 60.7312 30.7422C60.7312 31.4766 60.9526 32.0807 61.3953 32.5547C61.8432 33.0286 62.3927 33.2656 63.0437 33.2656C63.7156 33.2656 64.2729 33.0339 64.7156 32.5703C65.1583 32.1016 65.3797 31.4896 65.3797 30.7344C65.3797 29.9948 65.1583 29.3958 64.7156 28.9375C64.2729 28.4792 63.713 28.25 63.0359 28.25ZM68.5328 23.2188H70.6656V35H68.5328V23.2188ZM80.3188 31.3672H73.4672C73.5661 31.9714 73.8292 32.4531 74.2563 32.8125C74.6885 33.1667 75.238 33.3438 75.9047 33.3438C76.7016 33.3438 77.3865 33.0651 77.9594 32.5078L79.7563 33.3516C79.3083 33.987 78.7719 34.4583 78.1469 34.7656C77.5219 35.0677 76.7797 35.2188 75.9203 35.2188C74.587 35.2188 73.501 34.7995 72.6625 33.9609C71.824 33.1172 71.4047 32.0625 71.4047 30.7969C71.4047 29.5 71.8214 28.4245 72.6547 27.5703C73.4932 26.7109 74.5427 26.2812 75.8031 26.2812C77.1417 26.2812 78.2302 26.7109 79.0688 27.5703C79.9073 28.4245 80.3266 29.5547 80.3266 30.9609L80.3188 31.3672ZM78.1781 29.6875C78.0375 29.2135 77.7589 28.8281 77.3422 28.5312C76.9307 28.2344 76.4516 28.0859 75.9047 28.0859C75.3109 28.0859 74.7901 28.2526 74.3422 28.5859C74.0609 28.7943 73.8005 29.1615 73.5609 29.6875H78.1781ZM81.2531 26.5H83.3781V27.3672C83.8625 26.9609 84.3 26.6797 84.6906 26.5234C85.0865 26.362 85.4901 26.2812 85.9016 26.2812C86.7453 26.2812 87.4615 26.5755 88.05 27.1641C88.5448 27.6641 88.7922 28.4036 88.7922 29.3828V35H86.6828V31.2734C86.6828 30.2578 86.6359 29.5833 86.5422 29.25C86.4536 28.9167 86.2948 28.6641 86.0656 28.4922C85.8417 28.3151 85.563 28.2266 85.2297 28.2266C84.7974 28.2266 84.425 28.3724 84.1125 28.6641C83.8052 28.9505 83.5917 29.349 83.4719 29.8594C83.4094 30.125 83.3781 30.7005 83.3781 31.5859V35H81.2531V26.5ZM96.3438 26.5H98.4688V35H96.3438V34.1016C95.9271 34.4974 95.5078 34.7839 95.0859 34.9609C94.6693 35.1328 94.2161 35.2188 93.7266 35.2188C92.6276 35.2188 91.6771 34.7943 90.875 33.9453C90.0729 33.0911 89.6719 32.0312 89.6719 30.7656C89.6719 29.4531 90.0599 28.3776 90.8359 27.5391C91.612 26.7005 92.5547 26.2812 93.6641 26.2812C94.1745 26.2812 94.6536 26.3776 95.1016 26.5703C95.5495 26.763 95.9635 27.0521 96.3438 27.4375V26.5ZM94.1016 28.25C93.4401 28.25 92.8906 28.4844 92.4531 28.9531C92.0156 29.4167 91.7969 30.013 91.7969 30.7422C91.7969 31.4766 92.0182 32.0807 92.4609 32.5547C92.9089 33.0286 93.4583 33.2656 94.1094 33.2656C94.7812 33.2656 95.3385 33.0339 95.7812 32.5703C96.224 32.1016 96.4453 31.4896 96.4453 30.7344C96.4453 29.9948 96.224 29.3958 95.7812 28.9375C95.3385 28.4792 94.7786 28.25 94.1016 28.25Z" fill="#111827"/>
<defs>
<linearGradient id="paint0_linear_7663_27099" x1="20" y1="0" x2="20" y2="40" gradientUnits="userSpaceOnUse">
<stop stop-color="#6366F1"/>
<stop offset="1" stop-color="#A79FDB"/>
</linearGradient>
<linearGradient id="paint1_linear_7663_27099" x1="20" y1="0" x2="20" y2="40" gradientUnits="userSpaceOnUse">
<stop stop-color="#6366F1"/>
<stop offset="1" stop-color="#A79FDB"/>
</linearGradient>
</defs>
</svg>
