<svg width="79" height="79" viewBox="0 0 79 79" fill="none" xmlns="http://www.w3.org/2000/svg">
<path d="M485.877 250.811L484.036 248.616C460.194 220.184 426.92 201.185 390.23 195.054C353.541 188.924 315.86 196.067 284.001 215.191C279.443 217.958 274.975 220.938 270.728 224.131L270.727 224.131C265.818 227.816 261.126 231.781 256.676 236.005C252.901 239.634 249.344 243.392 245.916 247.366C221.938 275.198 208.646 310.591 208.399 347.257C208.153 383.924 220.969 419.491 244.572 447.64L244.601 447.674L244.626 447.711C244.886 448.085 245.177 448.423 245.499 448.798C245.62 448.94 245.746 449.087 245.877 449.242C249.093 452.971 252.463 456.511 255.989 459.935C259.547 456.524 262.934 452.94 266.137 449.197L266.148 449.184L266.158 449.172C266.604 448.684 267.049 448.2 267.408 447.724L267.423 447.703L267.44 447.683C291.032 419.532 303.845 383.971 303.607 347.309C303.369 310.647 290.095 275.254 266.139 247.409L265.52 246.689L266.206 246.034C270.673 241.761 275.416 237.784 280.405 234.129L281.152 233.582L281.755 234.284C309.05 266.056 324.051 306.491 324.051 348.302C324.051 390.111 309.051 430.545 281.757 462.316L281.755 462.319M485.877 250.811L280.996 461.668L281.755 462.319M485.877 250.811L485.802 247.947C485.544 238.043 484.607 228.167 482.996 218.389L485.877 250.811ZM281.755 462.319L280.535 463.751L280.53 463.757L280.524 463.763C277.393 467.317 274.145 470.726 270.779 473.99C267.427 477.24 263.901 480.375 260.202 483.393C259.133 484.514 257.736 485.27 256.211 485.555L256.018 485.59L255.826 485.551C254.309 485.239 252.916 484.492 251.82 483.401C248.14 480.39 244.596 477.165 241.188 473.859C237.769 470.542 234.615 467.184 231.508 463.656C231.267 463.414 231.045 463.156 230.842 462.918C230.801 462.869 230.76 462.82 230.72 462.773C230.552 462.574 230.397 462.391 230.233 462.212L230.222 462.2L230.212 462.187C225.665 456.87 221.43 451.296 217.527 445.494L217.526 445.492C196.236 413.694 185.957 375.842 188.256 337.694C190.554 299.547 205.301 263.192 230.255 234.156M281.755 462.319L230.255 234.156M230.255 234.156C230.254 234.157 230.253 234.158 230.252 234.159L231.016 234.805L230.257 234.153C230.256 234.154 230.256 234.155 230.255 234.156ZM36.1617 192.314C35.818 192.56 35.4752 192.808 35.1331 193.056L35.7209 193.865L36.6838 194.135C36.797 193.731 36.9113 193.328 37.0267 192.925C44.3857 187.674 52.1189 182.963 60.1654 178.828C75.5579 139.538 102.503 105.788 137.477 81.994C172.45 58.2002 213.822 45.4707 256.18 45.4707C298.539 45.4707 339.911 58.2002 374.884 81.994C409.858 105.788 436.803 139.538 452.195 178.828L36.1617 192.314ZM36.1617 192.314C49.7791 145.03 78.4054 103.387 117.78 73.6279C157.584 43.5437 206.185 27.2579 256.159 27.2579C306.133 27.2579 354.733 43.5437 394.538 73.6279C434.342 103.712 463.162 145.941 476.596 193.865L36.1617 192.314ZM459.226 199.901C458.808 199.633 458.388 199.368 457.967 199.104C458.101 199.581 458.233 200.059 458.363 200.537C458.782 200.803 459.2 201.071 459.616 201.341C459.488 200.86 459.358 200.38 459.226 199.901ZM241.183 222.532L241.885 223.244L241.193 222.522C241.191 222.524 241.19 222.525 241.188 222.527C241.187 222.528 241.185 222.53 241.183 222.532Z" fill="url(#paint0_linear_5439_2929)" stroke="url(#paint1_linear_5439_2929)" stroke-width="2"/>
<path d="M224.475 170.233C233.828 176.455 244.823 179.776 256.071 179.776C271.154 179.776 285.619 173.811 296.285 163.192C306.95 152.573 312.942 138.17 312.942 123.153C312.942 111.954 309.607 101.006 303.358 91.6942C297.109 82.3826 288.226 75.1251 277.835 70.8394C267.443 66.5538 256.008 65.4324 244.976 67.6171C233.944 69.8019 223.811 75.1946 215.857 83.1135C207.903 91.0324 202.487 101.122 200.293 112.106C198.098 123.09 199.224 134.475 203.529 144.822C207.833 155.168 215.123 164.012 224.475 170.233ZM233.412 89.4437C240.119 84.9809 248.004 82.5987 256.071 82.5987C266.878 82.5987 277.243 86.8702 284.889 94.4744C292.535 102.079 296.835 112.393 296.847 123.153C296.856 131.184 294.472 139.037 289.997 145.719C285.521 152.401 279.156 157.611 271.706 160.69C264.256 163.77 256.055 164.58 248.143 163.019C240.23 161.457 232.96 157.594 227.253 151.918C221.546 146.242 217.659 139.008 216.082 131.132C214.505 123.256 215.31 115.091 218.395 107.67C221.479 100.25 226.706 93.9066 233.412 89.4437Z" fill="url(#paint2_linear_5439_2929)" stroke="url(#paint3_linear_5439_2929)" stroke-width="0.25"/>
<path d="M256.202 357.969C248.476 342.758 238.262 332.197 225.341 327.243C232.377 324.589 238.767 320.478 244.087 315.181C249.407 309.884 253.537 303.522 256.202 296.516C258.725 303.602 262.804 310.038 268.144 315.354C273.483 320.669 279.947 324.731 287.063 327.243C273.753 333.952 262.941 344.717 256.202 357.969Z" fill="url(#paint4_linear_5439_2929)"/>
<path d="M485.188 274.132L485.216 273.8L485.039 273.518C479.897 265.295 473.933 257.612 467.237 250.585L465.513 248.776V251.275V251.282V251.29V251.298V251.305V251.313V251.321V251.328V251.336V251.344V251.351V251.359V251.367V251.374V251.382V251.389V251.397V251.405V251.412V251.42V251.428V251.435V251.443V251.451V251.458V251.466V251.473V251.481V251.489V251.496V251.504V251.512V251.519V251.527V251.535V251.542V251.55V251.558V251.565V251.573V251.58V251.588V251.596V251.603V251.611V251.619V251.626V251.634V251.642V251.649V251.657V251.664V251.672V251.68V251.687V251.695V251.703V251.71V251.718V251.726V251.733V251.741V251.748V251.756V251.764V251.771V251.779V251.787V251.794V251.802V251.81V251.817V251.825V251.833V251.84V251.848V251.855V251.863V251.871V251.878V251.886V251.894V251.901V251.909V251.917V251.924V251.932V251.939V251.947V251.955V251.962V251.97V251.978V251.985V251.993V252.001V252.008V252.016V252.023V252.031V252.039V252.046V252.054V252.062V252.069V252.077V252.085V252.092V252.1V252.108V252.115V252.123V252.13V252.138V252.146V252.153V252.161V252.169V252.176V252.184V252.192V252.199V252.207V252.214V252.222V252.23V252.237V252.245V252.253V252.26V252.268V252.276V252.283V252.291V252.299V252.306V252.314V252.321V252.329V252.337V252.344V252.352V252.36V252.367V252.375V252.383V252.39V252.398V252.405V252.413V252.421V252.428V252.436V252.444V252.451V252.459V252.467V252.474V252.482V252.489V252.497V252.505V252.512V252.52V252.528V252.535V252.543V252.551V252.558V252.566V252.574V252.581V252.589V252.596V252.604V252.612V252.619V252.627V252.635V252.642V252.65V252.658V252.665V252.673V252.68V252.688V252.696V252.703V252.711V252.719V252.726V252.734V252.742V252.749V252.757V252.764V252.772V252.78V252.787V252.795V252.803V252.81V252.818V252.826V252.833V252.841V252.849V252.856V252.864V252.871V252.879V252.887V252.894V252.902V252.91V252.917V252.925V252.933V252.94V252.948V252.955V252.963V252.971V252.978V252.986V252.994V253.001V253.009V253.017V253.024V253.032V253.039V253.047V253.055V253.062V253.07V253.078V253.085V253.093V253.101V253.108V253.116V253.124V253.131V253.139V253.146V253.154V253.162V253.169V253.177V253.185V253.192V253.2V253.208V253.215V253.223V253.23V253.238V253.246V253.253V253.261V253.269V253.276V253.284V253.292V253.299V253.307V253.315V253.322V253.33V253.337V253.345V253.353V253.36V253.368V253.376V253.383V253.391V253.399V253.406V253.414V253.421V253.429V253.437V253.444V253.452V253.46V253.467V253.475V253.483V253.49V253.498V253.505V253.513V253.521V253.528V253.536V253.544V253.551V253.559V253.567V253.574V253.582V253.59V253.597V253.605V253.612V253.62V253.628V253.635V253.643V253.651V253.658V253.666V253.674V253.681V253.689V253.696V253.704V253.712V253.719V253.727V253.735V253.742V253.75V253.758V253.765V253.773V253.78V253.788V253.796V253.803V253.811V253.819V253.826V253.834V253.842V253.849V253.857V253.865V253.872V253.88V253.887V253.895V253.903V253.91V253.918V253.926V253.933V253.941V253.949V253.956V253.964V253.971V253.979V253.987V253.994V254.002V254.01V254.017V254.025V254.033V254.04V254.048V254.055V254.063V254.071V254.078V254.086V254.094V254.101V254.109V254.117V254.124V254.132V254.14V254.147V254.155V254.162V254.17V254.178V254.185V254.193V254.201V254.208V254.216V254.224V254.231V254.239V254.246V254.254V254.262V254.269V254.277V254.285V254.292V254.3V254.308V254.315V254.323V254.331V254.338V254.346V254.353V254.361V254.369V254.376V254.384V254.392V254.399V254.407V254.415V254.422V254.43V254.437V254.445V254.453V254.46V254.468V254.476V254.483V254.491V254.499V254.506V254.514V254.521V254.529V254.537V254.544V254.552V254.56V254.567V254.575V254.583V254.59V254.598V254.606V254.613V254.621V254.628V254.636V254.644V254.651V254.659V254.667V254.674V254.682V254.69V254.697V254.705V254.712V254.72V254.728V254.735V254.743V254.751V254.758V254.766V254.774V254.781V254.789V254.797V254.804V254.812V254.819V254.827V254.835V254.842V254.85V254.858V254.865V254.873V254.881V254.888V254.896V254.903V254.911V254.919V254.926V254.934V254.942V254.949V254.957V254.965V254.972V254.98V254.987V254.995V255.003V255.01V255.018V255.026V255.033V255.041V255.049V255.056V255.064V255.072V255.079V255.087V255.094V255.102V255.11V255.117V255.125V255.133V255.14V255.148V255.156V255.163V255.171V255.178V255.185C465.469 302.377 449.37 348.164 419.841 385.081C390.312 421.998 349.093 447.869 302.903 458.475L302.54 458.558L302.32 458.86C299.538 462.668 296.714 466.301 293.631 469.976C290.548 473.651 287.336 477.194 283.953 480.606L281.93 482.646L284.782 482.303C292.54 481.372 300.24 480.016 307.849 478.243C355.284 467.256 398.001 441.583 429.864 404.91C461.728 368.237 481.097 322.453 485.188 274.132Z" fill="url(#paint5_linear_5439_2929)" stroke="url(#paint6_linear_5439_2929)" stroke-width="2"/>
<path d="M209.784 458.734L209.564 458.428L209.196 458.344C163.035 447.711 121.851 421.827 92.3547 384.912C62.8585 347.997 46.7878 302.225 46.7604 255.054V255.047V255.039V255.031V255.023V255.015V255.007V254.999V254.992V254.984V254.976V254.968V254.96V254.952V254.944V254.936V254.928V254.92V254.912V254.905V254.897V254.889V254.881V254.873V254.865V254.857V254.849V254.841V254.833V254.825V254.817V254.81V254.802V254.794V254.786V254.778V254.77V254.762V254.754V254.746V254.738V254.73V254.722V254.714V254.706V254.699V254.691V254.683V254.675V254.667V254.659V254.651V254.643V254.635V254.627V254.619V254.611V254.603V254.595V254.587V254.579V254.571V254.564V254.556V254.548V254.54V254.532V254.524V254.516V254.508V254.5V254.492V254.484V254.476V254.468V254.46V254.452V254.444V254.436V254.428V254.42V254.412V254.404V254.396V254.388V254.381V254.373V254.365V254.357V254.349V254.341V254.333V254.325V254.317V254.309V254.301V254.293V254.285V254.277V254.269V254.261V254.253V254.245V254.237V254.229V254.221V254.213V254.205V254.197V254.189V254.181V254.173V254.165V254.157V254.149V254.141V254.133V254.125V254.117V254.109V254.101V254.093V254.085V254.077V254.069V254.061V254.053V254.045V254.037V254.03V254.022V254.014V254.006V253.998V253.99V253.982V253.974V253.966V253.958V253.95V253.942V253.934V253.926V253.918V253.91V253.902V253.894V253.886V253.878V253.87V253.862V253.854V253.846V253.838V253.83V253.822V253.814V253.806V253.798V253.79V253.782V253.774V253.766V253.758V253.75V253.742V253.734V253.726V253.718V253.71V253.702V253.694V253.686V253.678V253.67V253.661V253.653V253.645V253.637V253.629V253.621V253.613V253.605V253.597V253.589V253.581V253.573V253.565V253.557V253.549V253.541V253.533V253.525V253.517V253.509V253.501V253.493V253.485V253.477V253.469V253.461V253.453V253.445V253.437V253.429V253.421V253.413V253.405V253.397V253.389V253.381V253.373V253.365V253.357V253.349V253.341V253.333V253.325V253.317V253.309V253.301V253.293V253.285V253.277V253.269V253.261V253.253V253.245V253.237V253.229V253.221V253.213V253.205V253.197V253.189V253.181V253.173V253.164V253.156V253.148V253.14V253.132V253.124V253.116V253.108V253.1V253.092V253.084V253.076V253.068V253.06V253.052V253.044V253.036V253.028V253.02V253.012V253.004V252.996V252.988V252.98V252.972V252.964V252.956V252.948V252.94V252.932V252.924V252.916V252.908V252.9V252.892V252.884V252.876V252.868V252.86V252.852V252.844V252.836V252.828V252.82V252.812V252.804V252.796V252.788V252.779V252.771V252.763V252.755V252.747V252.739V252.731V252.723V252.715V252.707V252.699V252.691V252.683V252.675V252.667V252.659V252.651V252.643V252.635V252.627V252.619V252.611V252.603V252.595V252.587V252.579V252.571V252.563V252.555V252.547V252.539V252.531V252.523V252.515V252.507V252.499V252.491V252.483V252.475V252.467V252.459V252.451V252.443V252.435V252.427V252.419V252.411V252.403V252.395V252.387V252.379V252.371V252.363V252.355V252.347V252.339V252.331V252.323V252.315V252.307V252.299V252.291V252.283V252.275V252.267V252.259V252.251V252.243V252.235V252.227V252.219V252.211V252.203V252.195V252.187V252.179V252.171V252.163V252.155V252.147V252.139V252.131V252.123V252.115V252.107V252.099V252.091V252.083V252.075V252.067V252.059V252.051V252.043V252.035V252.027V252.019V252.011V252.003V251.995V251.987V251.979V251.971V251.963V251.955V251.947V251.939V251.931V251.923V251.915V251.907V251.899V251.891V251.883V251.875V251.867V251.859V251.851V251.843V251.835V251.827V251.819V251.811V251.803V251.795V251.787V251.779V251.771V251.763V251.755V251.747V251.739V251.731V251.723V251.715V251.707V251.699V251.691V251.683V251.676V251.668V251.66V251.652V251.644V251.636V251.628V251.62V251.612V251.604V251.596V251.588V251.58V251.572V251.564V251.556V251.548V251.54V251.532V251.524V251.516V251.508V251.5V251.492V251.485V251.477V251.469V251.461V251.453V251.445V251.437V251.429V251.421V251.413V251.405V251.397V251.389V251.381V251.373V251.365V251.357V251.349V251.342V251.334V251.326V251.318V251.31V251.302V251.294V251.286V251.278V251.27V251.262V251.254V251.246V251.238V251.23V251.223V251.215V251.207V251.199V251.191V251.183V251.175V251.167V251.159V251.151V251.143V251.135V251.128V251.12V251.112V251.104V251.096V251.088V251.08V251.072V251.064V251.056V251.048V251.041V251.033V251.025V251.017V251.009V251.001V250.993V250.985V250.977V250.977C46.8758 243.447 47.3959 235.929 48.3186 228.455C53.9728 223.814 59.9432 219.569 66.1871 215.751C90.5134 200.91 118.468 193.008 146.998 192.909C175.529 192.81 203.539 200.518 227.969 215.19L228.647 215.597L229.2 215.03C233.652 210.462 238.347 206.134 243.264 202.065L244.318 201.193L243.168 200.453C214.699 182.148 181.53 172.412 147.642 172.412C113.754 172.412 80.585 182.148 52.1165 200.453L52.1136 200.455C44.0917 205.653 36.5144 211.501 29.4592 217.94L29.2027 218.174L29.1465 218.517C27.5487 228.252 26.5968 238.081 26.2966 247.94L26.2961 247.955V247.971V247.985V247.999V248.013V248.027V248.041V248.055V248.069V248.083V248.097V248.111V248.125V248.139V248.153V248.167V248.181V248.195V248.209V248.223V248.237V248.251V248.265V248.279V248.293V248.307V248.321V248.335V248.349V248.363V248.377V248.391V248.405V248.419V248.433V248.447V248.461V248.475V248.489V248.503V248.517V248.531V248.545V248.559V248.573V248.587V248.601V248.615V248.629V248.643V248.657V248.671V248.685V248.699V248.713V248.727V248.741V248.755V248.769V248.783V248.797V248.811V248.825V248.839V248.853V248.867V248.881V248.895V248.909V248.923V248.937V248.951V248.965V248.979V248.993V249.007V249.021V249.035V249.049V249.063V249.077V249.091V249.105V249.119V249.133V249.147V249.161V249.175V249.189V249.203V249.217V249.231V249.245V249.259V249.273V249.287V249.301V249.316V249.33V249.344V249.358V249.372V249.386V249.4V249.414V249.428V249.442V249.456V249.47V249.484V249.498V249.512V249.526V249.54V249.554V249.568V249.582V249.596V249.61V249.624V249.638V249.652V249.666V249.68V249.694V249.708V249.722V249.736V249.75V249.764V249.778V249.792V249.806V249.82V249.834V249.848V249.862V249.876V249.89V249.904V249.918V249.932V249.946V249.96V249.974V249.988V250.002V250.017V250.031V250.045V250.059V250.073V250.087V250.101V250.115V250.129V250.143V250.157V250.171V250.185V250.199V250.213V250.227V250.241V250.255V250.269V250.283V250.297V250.311V250.325V250.339V250.353V250.367V250.381V250.395V250.409V250.423V250.437V250.451V250.465V250.48V250.494V250.508V250.522V250.536V250.55V250.564V250.578V250.592V250.606V250.62V250.634V250.648V250.662V250.676V250.69V250.704V250.718V250.732V250.746V250.76V250.774V250.788V250.802V250.817V250.831V250.845V250.859V250.873V250.887V250.901V250.915V250.929V250.943V250.957V250.971V250.985V250.999V251.013V251.027V251.041V251.055V251.069V251.083V251.098V251.112V251.126V251.14V251.154V251.168V251.182V251.196V251.21V251.224V251.238V251.252V251.266V251.28V251.294V251.308V251.322V251.336V251.351V251.365V251.379V251.393V251.407V251.421V251.435V251.449V251.463V251.477V251.491V251.505V251.519V251.533V251.547V251.562V251.576V251.59V251.604V251.618V251.632V251.646V251.66V251.674V251.688V251.702V251.716V251.73V251.744V251.759V251.773V251.787V251.801V251.815V251.829V251.843V251.857V251.871V251.885V251.899V251.913V251.928V251.942V251.956V251.97V251.984V251.998V252.012V252.026V252.04V252.054V252.068V252.082V252.097V252.111V252.125V252.139V252.153V252.167V252.181V252.195V252.209V252.223V252.237V252.252V252.266V252.28V252.294V252.308V252.322V252.336V252.35V252.364V252.378V252.393V252.407V252.421V252.435V252.449V252.463V252.477V252.491V252.505V252.519V252.534V252.548V252.562V252.576V252.59V252.604V252.618V252.632V252.646V252.661V252.675V252.689V252.703V252.717V252.731V252.745V252.759V252.774V252.788V252.802V252.816V252.83V252.844V252.858V252.872V252.886V252.901V252.915V252.929V252.943V252.957V252.971V252.985V253V253.014V253.028V253.042V253.056V253.07V253.084V253.098V253.113V253.127V253.141V253.155V253.169V253.183V253.197V253.212V253.226V253.24V253.254V253.268V253.282V253.296V253.311V253.325V253.339V253.353V253.367V253.381V253.395V253.41V253.424V253.438V253.452V253.466V253.48V253.495V253.509V253.523V253.537V253.551V253.565V253.579V253.594V253.608V253.622V253.636V253.65V253.664V253.679V253.693V253.707V253.721V253.735V253.749V253.764V253.778V253.792V253.806V253.82V253.834V253.849V253.863V253.877V253.891V253.905V253.92V253.934V253.948V253.962V253.976V253.99V254.005V254.019V254.033V254.047V254.061V254.076V254.09V254.104V254.118V254.132V254.146V254.161V254.175V254.189V254.203V254.217V254.232V254.246V254.26V254.274V254.288V254.303V254.317V254.331V254.345V254.359V254.374V254.388V254.402V254.416V254.431V254.445V254.459V254.473V254.487V254.502V254.516V254.53V254.544V254.558V254.573V254.587V254.601V254.615V254.63V254.644V254.658V254.672V254.686V254.701V254.715V254.729V254.743V254.758V254.772V254.786V254.8V254.815V254.829V254.843V254.857V254.871V254.886V254.9V254.914V254.928V254.943V254.957V254.971V254.985V255V255.014V255.028V255.042V255.057V255.071V255.085V255.099V255.114V255.128V255.142V255.156V255.171V255.185C26.2961 261.427 26.5591 267.714 27.0854 273.827C31.1311 322.166 50.4632 367.983 82.3031 404.695C114.143 441.408 156.852 467.126 204.293 478.154L204.293 478.155C211.86 479.91 219.516 481.266 227.227 482.215L230.032 482.56L228.068 480.527C224.768 477.112 221.508 473.478 218.465 469.885C215.428 466.3 212.52 462.54 209.784 458.734Z" fill="url(#paint7_linear_5439_2929)" stroke="url(#paint8_linear_5439_2929)" stroke-width="2"/>
<defs>
<linearGradient id="paint0_linear_5439_2929" x1="260.262" y1="27.2579" x2="260.262" y2="484.571" gradientUnits="userSpaceOnUse">
<stop stop-color="#6366F1"/>
<stop offset="1" stop-color="#A79FDB"/>
</linearGradient>
<linearGradient id="paint1_linear_5439_2929" x1="260.262" y1="27.2579" x2="260.262" y2="484.571" gradientUnits="userSpaceOnUse">
<stop stop-color="#6366F1"/>
<stop offset="1" stop-color="#A79FDB"/>
</linearGradient>
<linearGradient id="paint2_linear_5439_2929" x1="256.071" y1="66.6542" x2="256.071" y2="179.651" gradientUnits="userSpaceOnUse">
<stop stop-color="#6366F1"/>
<stop offset="1" stop-color="#A79FDB"/>
</linearGradient>
<linearGradient id="paint3_linear_5439_2929" x1="256.071" y1="66.6542" x2="256.071" y2="179.651" gradientUnits="userSpaceOnUse">
<stop stop-color="#6366F1"/>
<stop offset="1" stop-color="#A79FDB"/>
</linearGradient>
<linearGradient id="paint4_linear_5439_2929" x1="256.202" y1="296.516" x2="256.202" y2="357.969" gradientUnits="userSpaceOnUse">
<stop stop-color="#6366F1"/>
<stop offset="1" stop-color="#A79FDB"/>
</linearGradient>
<linearGradient id="paint5_linear_5439_2929" x1="384.427" y1="251.275" x2="384.427" y2="481.31" gradientUnits="userSpaceOnUse">
<stop stop-color="#6366F1"/>
<stop offset="1" stop-color="#A79FDB"/>
</linearGradient>
<linearGradient id="paint6_linear_5439_2929" x1="384.427" y1="251.275" x2="384.427" y2="481.31" gradientUnits="userSpaceOnUse">
<stop stop-color="#6366F1"/>
<stop offset="1" stop-color="#A79FDB"/>
</linearGradient>
<linearGradient id="paint7_linear_5439_2929" x1="134.961" y1="173.412" x2="134.961" y2="481.222" gradientUnits="userSpaceOnUse">
<stop stop-color="#6366F1"/>
<stop offset="1" stop-color="#A79FDB"/>
</linearGradient>
<linearGradient id="paint8_linear_5439_2929" x1="134.961" y1="173.412" x2="134.961" y2="481.222" gradientUnits="userSpaceOnUse">
<stop stop-color="#6366F1"/>
<stop offset="1" stop-color="#A79FDB"/>
</linearGradient>
</defs>
</svg>
